<?xml version="1.0" standalone="no"?>
<!DOCTYPE svg PUBLIC "-//W3C//DTD SVG 20010904//EN"
 "http://www.w3.org/TR/2001/REC-SVG-20010904/DTD/svg10.dtd">
<svg version="1.0" xmlns="http://www.w3.org/2000/svg"
 width="1876.000000pt" height="1876.000000pt" viewBox="0 0 1876.000000 1876.000000"
 preserveAspectRatio="xMidYMid meet">
<metadata>
Created by potrace 1.14, written by Peter Selinger 2001-2017
</metadata>
<g transform="translate(0.000000,1876.000000) scale(0.100000,-0.100000)"
fill="#000000" stroke="none">
<path d="M9037 17294 c-1 -1 -54 -5 -117 -8 -63 -4 -133 -9 -155 -11 -22 -2
-69 -7 -105 -10 -115 -9 -184 -16 -210 -20 -14 -2 -47 -7 -75 -10 -27 -3 -61
-8 -75 -10 -14 -2 -45 -7 -70 -10 -44 -6 -68 -10 -130 -20 -16 -3 -42 -7 -57
-10 -77 -12 -104 -17 -173 -32 -41 -8 -86 -17 -100 -20 -13 -2 -56 -11 -95
-19 -38 -9 -77 -17 -85 -19 -8 -1 -35 -8 -60 -15 -25 -7 -53 -14 -63 -15 -9
-2 -45 -11 -80 -20 -34 -9 -69 -18 -77 -20 -36 -7 -394 -118 -485 -149 -135
-46 -317 -115 -450 -169 -103 -43 -135 -56 -310 -136 -545 -249 -1118 -603
-1604 -989 -98 -78 -103 -82 -186 -152 -370 -314 -741 -691 -1035 -1055 -36
-44 -68 -82 -71 -85 -3 -3 -66 -86 -140 -185 -499 -669 -886 -1406 -1154
-2199 -37 -109 -71 -212 -75 -230 -5 -17 -18 -62 -30 -101 -41 -136 -139 -541
-164 -677 -2 -13 -11 -61 -20 -108 -8 -47 -18 -103 -21 -125 -2 -22 -7 -51
-10 -65 -3 -14 -7 -43 -10 -65 -11 -81 -17 -130 -20 -147 -2 -9 -7 -48 -10
-85 -4 -37 -8 -79 -10 -92 -3 -13 -7 -58 -10 -100 -4 -42 -8 -92 -10 -111 -26
-276 -25 -1016 1 -1244 3 -28 7 -71 9 -96 3 -41 13 -145 20 -210 1 -14 5 -43
8 -65 4 -22 11 -76 17 -121 6 -44 12 -89 14 -100 2 -10 7 -39 11 -64 6 -40 37
-214 50 -279 16 -83 61 -280 81 -356 13 -49 26 -101 29 -115 85 -332 255 -820
400 -1145 15 -33 36 -80 47 -105 31 -69 249 -504 259 -516 5 -6 23 -37 40 -70
26 -49 86 -151 189 -320 97 -160 409 -607 450 -644 3 -3 18 -23 35 -45 36 -49
214 -266 229 -280 6 -5 24 -26 40 -45 203 -249 651 -680 996 -959 69 -55 130
-105 136 -110 58 -48 339 -249 444 -318 19 -12 40 -26 45 -30 23 -19 207 -133
212 -133 4 0 14 -6 22 -14 52 -46 576 -326 826 -441 515 -237 1164 -449 1690
-551 11 -2 54 -10 95 -19 41 -8 91 -17 110 -21 19 -3 60 -10 90 -15 30 -6 71
-12 90 -14 19 -2 44 -6 55 -9 11 -3 46 -8 78 -11 32 -4 67 -8 78 -10 11 -2 50
-7 87 -10 37 -4 78 -8 92 -10 14 -2 59 -7 100 -10 41 -3 100 -8 130 -11 144
-12 360 -18 615 -18 299 0 466 7 690 29 28 2 77 7 110 10 33 3 74 7 90 10 101
13 123 16 155 19 19 2 94 14 165 25 124 21 149 25 213 36 15 2 72 14 127 25
55 12 111 24 125 26 14 3 54 12 90 20 36 9 72 17 80 19 369 85 963 286 1288
436 35 16 65 29 67 29 14 0 435 206 525 257 19 11 62 35 95 53 33 18 77 44 97
57 21 12 39 23 42 23 9 0 234 141 394 247 144 96 509 361 548 397 20 20 107
91 128 105 12 8 23 17 26 20 3 4 23 21 45 40 200 169 523 480 693 667 35 38
76 83 91 99 57 63 210 245 302 360 567 714 1029 1572 1314 2445 44 134 124
401 140 470 2 8 16 65 30 125 31 128 29 119 49 215 9 41 18 93 22 115 3 22 8
43 10 46 2 4 6 24 9 45 3 22 12 73 20 114 8 41 17 95 20 120 3 25 8 56 10 70
3 14 7 48 10 75 3 28 8 57 10 65 2 8 7 49 10 90 4 41 8 82 10 90 7 40 22 237
32 435 13 258 7 796 -11 975 -2 19 -7 73 -10 120 -4 47 -9 99 -11 115 -2 17
-7 56 -10 89 -4 32 -8 68 -10 80 -2 11 -6 44 -10 71 -10 83 -48 316 -71 440
-23 127 -111 506 -135 580 -5 17 -22 77 -39 135 -71 256 -210 641 -325 905
-344 789 -789 1488 -1360 2134 -215 243 -569 590 -785 767 -19 16 -49 42 -66
57 -25 22 -304 242 -349 275 -6 4 -35 26 -65 48 -30 23 -68 50 -85 60 -16 10
-35 23 -41 29 -6 6 -49 35 -95 65 -46 30 -88 59 -94 63 -37 29 -343 217 -353
217 -3 0 -13 6 -21 14 -9 7 -45 29 -81 48 -36 19 -83 45 -105 58 -48 27 -411
209 -475 238 -486 218 -906 365 -1390 487 -80 21 -158 39 -175 41 -16 3 -36 7
-44 10 -12 4 -169 36 -287 59 -76 14 -307 49 -404 60 -25 3 -61 7 -80 10 -19
3 -60 7 -90 10 -30 3 -73 8 -95 10 -23 3 -79 7 -125 11 -47 3 -110 8 -140 10
-56 5 -808 12 -813 8z"/>
</g>
</svg>
